<?xml version="1.0" encoding="UTF-8"?>
<!-- Generator: visioncortex VTracer 0.6.12 -->
<svg version="1.1" xmlns="http://www.w3.org/2000/svg" width="266" height="240">
<path d="M0 0 C87.78 0 175.56 0 266 0 C266 79.2 266 158.4 266 240 C178.22 240 90.44 240 0 240 C0 160.8 0 81.6 0 0 Z " fill="#FEFEFE" transform="translate(0,0)"/>
<path d="M0 0 C0 0.66 0 1.32 0 2 C0.701 2.227 1.403 2.454 2.125 2.688 C8.281 5.498 11.696 9.481 14.938 15.312 C15.272 15.914 15.606 16.515 15.95 17.134 C19.152 23.021 21.794 29.135 24.406 35.301 C26.065 39.203 27.941 42.974 29.867 46.75 C31.063 49.126 32.204 51.519 33.312 53.938 C33.639 54.648 33.965 55.358 34.301 56.09 C35 58 35 58 35 61 C35.66 61 36.32 61 37 61 C37.508 62.16 38.016 63.32 38.539 64.516 C41.963 72.3 45.433 80.023 49.297 87.602 C51.635 92.267 53.881 96.976 56.125 101.688 C56.545 102.567 56.965 103.447 57.398 104.353 C58.608 106.897 59.807 109.447 61 112 C61.197 112.419 61.197 112.419 62.194 114.542 C62.561 115.339 62.927 116.136 63.305 116.957 C63.632 117.664 63.959 118.372 64.296 119.101 C65 121 65 121 65 124 C65.66 124 66.32 124 67 124 C68.345 127.245 69.674 130.497 71 133.75 C71.382 134.67 71.763 135.591 72.156 136.539 C72.517 137.429 72.878 138.318 73.25 139.234 C73.585 140.051 73.92 140.868 74.266 141.71 C75 144 75 144 75 148 C75.66 148 76.32 148 77 148 C77 151.96 77 155.92 77 160 C76.34 160 75.68 160 75 160 C74.917 160.887 74.835 161.774 74.75 162.688 C73.861 166.612 72.878 168.196 70 171 C61.779 175.939 54.377 177.282 45 175 C33.263 171.015 27.124 160.048 21 150 C20.682 149.265 20.363 148.53 20.035 147.773 C18.513 145.165 16.389 144.001 13.875 142.375 C12.217 141.299 10.582 140.185 9 139 C9 138.34 9 137.68 9 137 C-5.805 132.926 -21.534 133.556 -35.008 141.211 C-42.826 145.864 -50.065 151.111 -57 157 C-79.318 175.604 -79.318 175.604 -90.691 175.316 C-95.896 174.603 -99.751 172.282 -103.375 168.562 C-107.558 161.967 -108.001 155.461 -106.605 147.848 C-104.625 141.19 -101.106 135.02 -97.938 128.867 C-96.119 125.308 -94.533 121.69 -93 118 C-92.34 118 -91.68 118 -91 118 C-90.908 117.346 -90.817 116.693 -90.723 116.02 C-89.763 112.01 -88.129 108.436 -86.438 104.688 C-86.273 104.317 -86.273 104.317 -85.439 102.443 C-84.631 100.627 -83.816 98.813 -83 97 C-82.34 97 -81.68 97 -81 97 C-80.67 95.845 -80.34 94.69 -80 93.5 C-78.244 88.207 -75.739 83.343 -73.203 78.395 C-69.473 71.071 -66.217 63.56 -63 56 C-62.34 56 -61.68 56 -61 56 C-60.608 54.742 -60.216 53.484 -59.812 52.188 C-57.961 46.598 -55.515 41.317 -53 36 C-52.34 36 -51.68 36 -51 36 C-50.608 34.742 -50.216 33.484 -49.812 32.188 C-47.961 26.598 -45.515 21.317 -43 16 C-42.34 16 -41.68 16 -41 16 C-40.773 15.299 -40.546 14.597 -40.312 13.875 C-38.102 9.032 -35.668 5.692 -30.688 3.625 C-30.244 3.522 -30.244 3.522 -28 3 C-28 2.34 -28 1.68 -28 1 C-19.077 -3.199 -9.262 -3.446 0 0 Z " fill="#53B2CD" transform="translate(148,22)"/>
<path d="M0 0 C2.718 3.234 4.844 6.328 6.688 10.125 C7.194 11.165 7.701 12.206 8.223 13.277 C8.816 14.518 9.408 15.759 10 17 C10.358 17.748 10.716 18.496 11.085 19.266 C13.749 24.832 16.4 30.404 19 36 C19.192 36.409 19.192 36.409 20.163 38.479 C20.53 39.276 20.896 40.073 21.273 40.895 C21.605 41.611 21.937 42.327 22.279 43.066 C23 45 23 45 23 48 C23.66 48 24.32 48 25 48 C25.508 49.16 26.016 50.32 26.539 51.516 C29.963 59.3 33.433 67.023 37.297 74.602 C39.635 79.267 41.881 83.976 44.125 88.688 C44.545 89.567 44.965 90.447 45.398 91.353 C46.608 93.897 47.807 96.447 49 99 C49.197 99.419 49.197 99.419 50.194 101.542 C50.561 102.339 50.927 103.136 51.305 103.957 C51.632 104.664 51.959 105.372 52.296 106.101 C53 108 53 108 53 111 C53.66 111 54.32 111 55 111 C56.345 114.245 57.674 117.497 59 120.75 C59.382 121.67 59.763 122.591 60.156 123.539 C60.517 124.429 60.878 125.318 61.25 126.234 C61.585 127.051 61.92 127.868 62.266 128.71 C63 131 63 131 63 135 C63.66 135 64.32 135 65 135 C65 138.96 65 142.92 65 147 C64.34 147 63.68 147 63 147 C62.917 147.887 62.835 148.774 62.75 149.688 C61.861 153.612 60.878 155.196 58 158 C49.779 162.939 42.377 164.282 33 162 C21.263 158.015 15.124 147.048 9 137 C8.682 136.265 8.363 135.53 8.035 134.773 C6.513 132.165 4.389 131.001 1.875 129.375 C0.217 128.299 -1.418 127.185 -3 126 C-3 125.34 -3 124.68 -3 124 C-17.805 119.926 -33.534 120.556 -47.008 128.211 C-54.826 132.864 -62.065 138.111 -69 144 C-91.318 162.604 -91.318 162.604 -102.691 162.316 C-107.896 161.603 -111.751 159.282 -115.375 155.562 C-119.558 148.967 -120.001 142.461 -118.605 134.848 C-116.625 128.19 -113.106 122.02 -109.938 115.867 C-108.119 112.308 -106.533 108.69 -105 105 C-104.34 105 -103.68 105 -103 105 C-102.67 104.34 -102.34 103.68 -102 103 C-100.339 107.983 -103.702 112.43 -105.938 116.938 C-106.955 118.957 -107.983 120.969 -109.039 122.969 C-113.053 130.691 -116.78 138.627 -114.32 147.434 C-113.596 149.645 -112.828 151.826 -112 154 C-109.36 154 -106.72 154 -104 154 C-104 153.34 -104 152.68 -104 152 C-103.432 151.853 -102.863 151.706 -102.277 151.555 C-96.946 150.006 -93.456 148.126 -89.508 144.207 C-88 143 -88 143 -85 143 C-84.67 142.01 -84.34 141.02 -84 140 C-78.535 135 -78.535 135 -76 135 C-75.738 134.419 -75.477 133.837 -75.207 133.238 C-73.932 130.873 -72.502 129.163 -70.688 127.188 C-68.38 124.643 -66.427 122.169 -64.625 119.25 C-61.698 115.013 -57.688 113.734 -53 112 C-51.706 111.423 -50.414 110.84 -49.125 110.25 C-46 109 -46 109 -43 109 C-43 108.34 -43 107.68 -43 107 C-42.691 106.869 -42.691 106.869 -41.127 106.209 C-20.295 97.377 -20.295 97.377 -11.125 92.562 C-10.508 92.245 -9.891 91.928 -9.256 91.602 C-5.123 89.37 -5.123 89.37 -4 86 C-4.542 83.615 -4.542 83.615 -5.477 80.809 C-5.818 79.781 -6.16 78.753 -6.512 77.693 C-6.695 77.156 -6.695 77.156 -7.625 74.438 C-7.969 73.39 -8.313 72.343 -8.668 71.264 C-10.673 65.31 -12.955 59.758 -15.962 54.239 C-17.098 51.788 -17.696 49.684 -18 47 C-16.629 44.195 -16.629 44.195 -14.562 41.125 C-13.818 39.983 -13.077 38.838 -12.34 37.691 C-11.954 37.093 -11.569 36.495 -11.171 35.879 C-9.18 32.684 -7.396 29.384 -5.625 26.062 C-5.458 25.755 -5.458 25.755 -4.615 24.202 C-1.341 18.035 0.268 13.131 0.125 6.125 C0.107 4.973 0.089 3.82 0.07 2.633 C0.047 1.764 0.024 0.895 0 0 Z " fill="#67BF97" transform="translate(160,35)"/>
<path d="M0 0 C2.718 3.234 4.844 6.328 6.688 10.125 C7.194 11.165 7.701 12.206 8.223 13.277 C8.816 14.518 9.408 15.759 10 17 C10.358 17.748 10.716 18.496 11.085 19.266 C13.749 24.832 16.4 30.404 19 36 C19.192 36.409 19.192 36.409 20.163 38.479 C20.53 39.276 20.896 40.073 21.273 40.895 C21.605 41.611 21.937 42.327 22.279 43.066 C23 45 23 45 23 48 C23.66 48 24.32 48 25 48 C26.035 50.244 27.053 52.494 28.062 54.75 C28.357 55.384 28.652 56.018 28.955 56.672 C30.567 60.313 31.126 62.226 30 66 C30.785 68.375 30.785 68.375 32.062 71 C32.521 71.955 32.98 72.91 33.453 73.895 C33.964 74.919 34.474 75.944 35 77 C35.276 77.559 35.276 77.559 36.672 80.387 C38.102 83.264 39.545 86.135 41 89 C39 90 39 90 37.152 89.547 C36.421 89.284 35.691 89.021 34.938 88.75 C34.533 88.61 34.533 88.61 32.488 87.902 C30.915 87.332 29.349 86.743 27.793 86.129 C19.783 83.113 12.443 82.758 4.438 86 C3.632 86.371 2.826 86.743 1.996 87.125 C0 88 0 88 -2 88 C-2.165 87.01 -2.165 87.01 -3 82 C-3.66 82 -4.32 82 -5 82 C-5.221 81.375 -5.443 80.751 -5.671 80.107 C-6.692 77.236 -7.721 74.368 -8.75 71.5 C-9.098 70.518 -9.446 69.535 -9.805 68.523 C-11.402 64.086 -13.026 59.783 -15.203 55.594 C-17.952 50.219 -17.952 50.219 -18 47 C-16.629 44.195 -16.629 44.195 -14.562 41.125 C-13.818 39.983 -13.077 38.838 -12.34 37.691 C-11.954 37.093 -11.569 36.495 -11.171 35.879 C-9.18 32.684 -7.396 29.384 -5.625 26.062 C-5.292 25.448 -4.959 24.834 -4.615 24.202 C-1.341 18.035 0.268 13.131 0.125 6.125 C0.107 4.973 0.089 3.82 0.07 2.633 C0.047 1.764 0.024 0.895 0 0 Z " fill="#4EA9A7" transform="translate(160,35)"/>
<path d="M0 0 C0.66 0 1.32 0 2 0 C5.497 7.532 8.441 15.225 11.277 23.024 C11.954 24.873 12.648 26.716 13.344 28.559 C13.725 29.612 14.107 30.665 14.5 31.75 C14.84 32.673 15.181 33.596 15.531 34.547 C16.11 37.574 15.629 38.436 14 41 C12.283 42.261 12.283 42.261 10.211 43.332 C9.441 43.735 8.672 44.138 7.879 44.553 C7.053 44.969 6.226 45.384 5.375 45.812 C4.531 46.246 3.686 46.68 2.816 47.126 C-2.723 49.939 -8.32 52.609 -14 55.125 C-14.663 55.42 -15.327 55.715 -16.01 56.019 C-18.854 57.241 -20.87 58 -24 58 C-24 58.66 -24 59.32 -24 60 C-26.123 60.837 -28.249 61.67 -30.375 62.5 C-31.558 62.964 -32.742 63.428 -33.961 63.906 C-37 65 -37 65 -39 65 C-37.176 61.064 -34.821 57.467 -32.5 53.812 C-28.419 47.338 -24.488 40.79 -20.631 34.181 C-17.338 28.546 -13.943 22.983 -10.496 17.441 C-9 15 -9 15 -8 13 C-7.34 13 -6.68 13 -6 13 C-5.752 12.154 -5.505 11.309 -5.25 10.438 C-3.86 6.616 -2.089 3.481 0 0 Z " fill="#FCFDFD" transform="translate(141,84)"/>
<path d="M0 0 C3 1 3 1 4.473 3.422 C4.997 4.52 5.522 5.618 6.062 6.75 C6.355 7.355 6.647 7.961 6.948 8.585 C7.605 9.95 8.257 11.317 8.905 12.687 C10.106 15.225 11.322 17.755 12.539 20.285 C15.047 25.514 17.547 30.745 20 36 C20.393 36.836 20.785 37.672 21.19 38.533 C21.557 39.33 21.923 40.128 22.301 40.949 C22.629 41.658 22.956 42.366 23.294 43.096 C24 45 24 45 24 48 C24.66 48 25.32 48 26 48 C27.345 51.245 28.674 54.497 30 57.75 C30.191 58.21 30.191 58.21 31.156 60.539 C31.517 61.429 31.878 62.318 32.25 63.234 C32.418 63.643 32.418 63.643 33.266 65.71 C34 68 34 68 34 72 C34.66 72 35.32 72 36 72 C36 75.96 36 79.92 36 84 C35.34 84 34.68 84 34 84 C33.918 84.887 33.835 85.774 33.75 86.688 C32.876 90.547 31.786 92.214 29 95 C25.75 96.812 25.75 96.812 23 98 C22.34 97.34 21.68 96.68 21 96 C21.494 95.685 21.987 95.371 22.496 95.047 C23.137 94.619 23.777 94.191 24.438 93.75 C25.076 93.332 25.714 92.915 26.371 92.484 C28.318 90.71 28.464 89.519 29 87 C29.66 86.67 30.32 86.34 31 86 C32.744 80.767 32.679 75.12 31 69.875 C30.67 69.256 30.34 68.637 30 68 C29.67 68 29.34 68 29 68 C28.752 67.072 28.505 66.144 28.25 65.188 C26.916 61.786 26.101 60.785 23 59 C22.505 58.835 22.505 58.835 20 58 C19.542 57.234 19.085 56.469 18.613 55.68 C12.494 45.516 -4.256 38.77 -15.172 35.414 C-17.473 34.893 -19.649 34.933 -22 35 C-22.563 34.665 -23.127 34.33 -23.707 33.984 C-26.915 32.607 -29.418 33.004 -32.875 33.312 C-34.069 33.412 -35.262 33.511 -36.492 33.613 C-40 34 -40 34 -43.32 34.668 C-44.205 34.778 -45.089 34.887 -46 35 C-46.66 34.34 -47.32 33.68 -48 33 C-47.001 32.529 -46.002 32.059 -44.973 31.574 C-43.669 30.946 -42.366 30.317 -41.062 29.688 C-40.733 29.533 -40.733 29.533 -39.064 28.752 C-37.337 27.91 -35.664 26.961 -34 26 C-33.222 23.667 -32.576 21.386 -32 19 C-31.67 20.98 -31.34 22.96 -31 25 C-30.261 24.639 -29.523 24.278 -28.762 23.906 C-19.357 19.604 -12.154 18.283 -2.312 21.875 C-1.415 22.239 -0.518 22.602 0.406 22.977 C3.882 24.348 7.36 25.176 11 26 C10.625 25.261 10.25 24.523 9.863 23.762 C7.218 18.518 4.608 13.26 2.125 7.938 C1.715 7.06 1.305 6.182 0.883 5.277 C0 3 0 3 0 0 Z " fill="#99EAAC" transform="translate(189,98)"/>
<path d="M0 0 C13.491 -0.596 22.565 0.72 33 10 C35.224 12.705 37.058 15.573 38.875 18.562 C39.347 19.304 39.819 20.046 40.305 20.811 C45.085 28.435 45.085 28.435 46 32 C45.34 32.99 44.68 33.98 44 35 C44.557 35.083 45.114 35.165 45.688 35.25 C48 36 48 36 50.188 37.875 C53.853 40.645 57.624 41.742 62 43 C62 43.66 62 44.32 62 45 C63.98 45 65.96 45 68 45 C68 45.33 68 45.66 68 46 C59.956 46.525 52.848 44.909 46.5 39.75 C40.312 33.837 34.445 25.643 31.035 17.773 C29.513 15.165 27.389 14.001 24.875 12.375 C23.217 11.299 21.582 10.185 20 9 C20 8.34 20 7.68 20 7 C5.195 2.926 -10.534 3.556 -24.008 11.211 C-31.162 15.472 -37.852 20.175 -44.18 25.602 C-46 27 -46 27 -48 27 C-46.47 23.269 -44.233 21.109 -41.25 18.438 C-40.41 17.673 -39.569 16.909 -38.703 16.121 C-35.922 13.939 -33.204 12.473 -30 11 C-29.216 10.608 -28.433 10.216 -27.625 9.812 C-27.089 9.544 -26.552 9.276 -26 9 C-26 8.34 -26 7.68 -26 7 C-17.538 3.615 -8.997 2.878 0 2 C0 1.34 0 0.68 0 0 Z " fill="#5EAC7F" transform="translate(137,152)"/>
<path d="M0 0 C0 0.66 0 1.32 0 2 C0.701 2.227 1.403 2.454 2.125 2.688 C5.623 4.284 8.524 6.053 11 9 C12.071 11.921 12.646 13.995 13 17 C13.094 17.691 13.188 18.382 13.285 19.094 C14.126 30.998 5.856 42.225 0.084 52.123 C-0.652 53.398 -1.376 54.68 -2.088 55.969 C-4.023 59.458 -5.542 61.901 -9 64 C-9.33 63.01 -9.66 62.02 -10 61 C-9.34 61 -8.68 61 -8 61 C-7.773 60.361 -7.546 59.721 -7.312 59.062 C-5.514 54.867 -3.261 50.961 -1 47 C-0.34 47 0.32 47 1 47 C2.239 44.026 3.301 41.147 4 38 C4.66 38 5.32 38 6 38 C6.062 37.443 6.062 37.443 6.375 34.625 C7 31 7 31 9 29 C10.659 24.022 10.793 19.178 10 14 C6.862 8.134 2.243 4.921 -4 3 C-4.99 3 -5.98 3 -7 3 C-7 2.34 -7 1.68 -7 1 C-17.006 1.195 -27.063 2.897 -34.625 10 C-36.81 12.76 -37.928 14.701 -39 18 C-40.52 21.247 -42.106 24.156 -44.125 27.125 C-45.729 29.584 -46.562 31.152 -47 34 C-47.66 34 -48.32 34 -49 34 C-48.554 27.31 -45.927 21.972 -43 16 C-42.34 16 -41.68 16 -41 16 C-40.773 15.299 -40.546 14.597 -40.312 13.875 C-38.102 9.032 -35.668 5.692 -30.688 3.625 C-30.244 3.522 -30.244 3.522 -28 3 C-28 2.34 -28 1.68 -28 1 C-19.077 -3.199 -9.262 -3.446 0 0 Z " fill="#76E8E9" transform="translate(148,22)"/>
<path d="M0 0 C0.66 0.99 1.32 1.98 2 3 C1.121 5.489 0.184 7.66 -1 10 C-1.316 10.645 -1.632 11.289 -1.957 11.953 C-3.286 14.642 -4.639 17.316 -6.039 19.969 C-10.053 27.691 -13.78 35.627 -11.32 44.434 C-10.596 46.645 -9.828 48.826 -9 51 C-6.36 51 -3.72 51 -1 51 C-1.165 51.825 -1.165 51.825 -2 56 C4.27 57.229 7.276 56.686 12.625 53.375 C15 52 15 52 18 52 C18 51.01 18 50.02 18 49 C20.669 46.998 23.313 45.334 26.312 43.875 C28 43 28 43 29 41 C29.99 41.33 30.98 41.66 32 42 C22.803 50.798 13.675 59.456 0.379 59.281 C-4.865 58.661 -8.739 56.294 -12.375 52.562 C-16.558 45.967 -17.001 39.461 -15.605 31.848 C-13.625 25.19 -10.106 19.02 -6.938 12.867 C-5.119 9.308 -3.533 5.69 -2 2 C-1.34 2 -0.68 2 0 2 C0 1.34 0 0.68 0 0 Z " fill="#3D6B89" transform="translate(57,138)"/>
<path d="M0 0 C18.247 -0.806 18.247 -0.806 25 4 C25.165 4.33 25.165 4.33 26 6 C23.36 5.34 20.72 4.68 18 4 C18 4.66 18 5.32 18 6 C18.33 6.165 18.33 6.165 20 7 C19.475 6.856 18.951 6.711 18.41 6.562 C2.817 2.826 -12.23 4.196 -26.095 12.454 C-32.48 16.409 -38.472 20.706 -44.18 25.602 C-46 27 -46 27 -48 27 C-46.47 23.269 -44.233 21.109 -41.25 18.438 C-40.41 17.673 -39.569 16.909 -38.703 16.121 C-35.922 13.939 -33.204 12.473 -30 11 C-29.216 10.608 -28.433 10.216 -27.625 9.812 C-27.089 9.544 -26.552 9.276 -26 9 C-26 8.34 -26 7.68 -26 7 C-17.538 3.615 -8.997 2.878 0 2 C0 1.34 0 0.68 0 0 Z " fill="#4B9687" transform="translate(137,152)"/>
<path d="M0 0 C0.66 0.99 1.32 1.98 2 3 C1.121 5.489 0.184 7.66 -1 10 C-1.316 10.645 -1.632 11.289 -1.957 11.953 C-3.286 14.642 -4.639 17.316 -6.039 19.969 C-9.921 27.436 -12.237 34.607 -13 43 C-13.66 43 -14.32 43 -15 43 C-17.065 31.176 -12.232 23.147 -6.938 12.867 C-5.119 9.308 -3.533 5.69 -2 2 C-1.34 2 -0.68 2 0 2 C0 1.34 0 0.68 0 0 Z " fill="#3D7BA2" transform="translate(57,138)"/>
<path d="M0 0 C6.441 0.853 11.624 1.845 16 7 C22 14.866 22 14.866 22 19 C21.34 19 20.68 19 20 19 C19.67 19.66 19.34 20.32 19 21 C18.67 18.36 18.34 15.72 18 13 C17.67 13.165 17.67 13.165 16 14 C16.66 15.65 17.32 17.3 18 19 C15.852 16.852 13.717 14.702 11.625 12.5 C9 10 9 10 5.688 7.875 C5.244 7.566 5.244 7.566 3 6 C3 5.01 3 4.02 3 3 C2.34 3 1.68 3 1 3 C0.67 2.01 0.34 1.02 0 0 Z " fill="#59A389" transform="translate(154,155)"/>
<path d="M0 0 C1.492 1.105 1.492 1.105 3 3 C4.327 14.865 -0.68 23.808 -6.562 33.602 C-10.582 40.308 -13.562 46.113 -14 54 C-17 52 -17 52 -17.902 49.742 C-18.038 45.941 -16.674 44.262 -14.562 41.125 C-13.818 39.983 -13.077 38.838 -12.34 37.691 C-11.954 37.093 -11.569 36.495 -11.171 35.879 C-9.18 32.684 -7.396 29.384 -5.625 26.062 C-5.292 25.448 -4.959 24.834 -4.615 24.202 C-1.341 18.035 0.268 13.131 0.125 6.125 C0.107 4.973 0.089 3.82 0.07 2.633 C0.047 1.764 0.024 0.895 0 0 Z " fill="#3A8292" transform="translate(160,35)"/>
<path d="M0 0 C-2 2 -2 2 -5.75 3.25 C-11.085 5.171 -14.745 8.359 -17.188 13.5 C-17.456 14.325 -17.724 15.15 -18 16 C-19.52 19.247 -21.106 22.156 -23.125 25.125 C-24.729 27.584 -25.562 29.152 -26 32 C-26.66 32 -27.32 32 -28 32 C-27.554 25.31 -24.927 19.972 -22 14 C-21.34 14 -20.68 14 -20 14 C-19.773 13.299 -19.546 12.597 -19.312 11.875 C-16.09 4.816 -12.363 2.302 -5.305 -0.434 C-3 -1 -3 -1 0 0 Z " fill="#6CCDDC" transform="translate(127,24)"/>
<path d="M0 0 C3 1 3 1 4.648 3.809 C5.234 5.013 5.809 6.223 6.375 7.438 C6.988 8.718 7.601 9.998 8.215 11.277 C8.515 11.91 8.815 12.543 9.125 13.195 C10.324 15.668 11.639 18.077 12.938 20.5 C14.775 24.14 15.546 26.853 15 31 C11.625 29.814 9.353 28.724 7 26 C8.32 26 9.64 26 11 26 C10.625 25.261 10.25 24.523 9.863 23.762 C7.218 18.518 4.608 13.26 2.125 7.938 C1.715 7.06 1.305 6.182 0.883 5.277 C0 3 0 3 0 0 Z " fill="#73C9AB" transform="translate(189,98)"/>
<path d="M0 0 C0 0.66 0 1.32 0 2 C0.701 2.227 1.403 2.454 2.125 2.688 C5.693 4.317 8.065 6.406 11 9 C10.67 9.66 10.34 10.32 10 11 C9.809 10.78 9.809 10.78 8.844 9.668 C6.571 7.612 4.294 6.563 1.5 5.312 C0.541 4.876 -0.418 4.439 -1.406 3.988 C-4 3 -4 3 -7 3 C-7 2.34 -7 1.68 -7 1 C-9.75 1.141 -12.5 1.288 -15.25 1.438 C-16.027 1.477 -16.805 1.516 -17.605 1.557 C-17.983 1.578 -17.983 1.578 -19.891 1.684 C-20.236 1.702 -20.236 1.702 -21.985 1.795 C-24.066 2.007 -25.986 2.445 -28 3 C-28 2.34 -28 1.68 -28 1 C-19.077 -3.199 -9.262 -3.446 0 0 Z " fill="#85DBDD" transform="translate(148,22)"/>
<path d="M0 0 C-1.65 0.33 -3.3 0.66 -5 1 C-5 1.66 -5 2.32 -5 3 C-6.494 4.11 -6.494 4.11 -8.586 5.32 C-9.348 5.77 -10.11 6.219 -10.895 6.682 C-11.304 6.92 -11.304 6.92 -13.375 8.125 C-19.761 11.912 -25.631 15.769 -31.25 20.637 C-33 22 -33 22 -35 22 C-33.47 18.269 -31.233 16.109 -28.25 13.438 C-27.41 12.673 -26.569 11.909 -25.703 11.121 C-22.922 8.939 -20.204 7.473 -17 6 C-16.216 5.608 -15.433 5.216 -14.625 4.812 C-14.089 4.544 -13.552 4.276 -13 4 C-13 3.34 -13 2.68 -13 2 C-11.588 1.466 -10.17 0.948 -8.75 0.438 C-7.961 0.147 -7.172 -0.143 -6.359 -0.441 C-3.809 -1.045 -2.447 -0.847 0 0 Z " fill="#4F97A9" transform="translate(124,157)"/>
<path d="M0 0 C5.067 4.547 7.045 11.645 9 18 C9.66 18 10.32 18 11 18 C10.938 18.866 10.876 19.733 10.812 20.625 C11.025 24.442 12.12 26.711 14 30 C15.217 29.505 16.434 29.01 17.688 28.5 C20.925 27.275 23.501 26.672 27 27 C24.3 28.8 21.933 29.934 18.938 31.125 C18.06 31.478 17.182 31.831 16.277 32.195 C14 33 14 33 12 33 C11.67 31.02 11.34 29.04 11 27 C10.34 27 9.68 27 9 27 C7.682 23.44 6.371 19.876 5.062 16.312 C4.689 15.305 4.316 14.298 3.932 13.26 C3.574 12.283 3.216 11.307 2.848 10.301 C2.518 9.405 2.188 8.51 1.848 7.587 C1.023 5.069 0.462 2.607 0 0 Z " fill="#357C8D" transform="translate(146,90)"/>
<path d="M0 0 C0.33 0.99 0.66 1.98 1 3 C1.66 3 2.32 3 3 3 C3 6.96 3 10.92 3 15 C2.34 15 1.68 15 1 15 C0.917 15.887 0.835 16.774 0.75 17.688 C-0.124 21.547 -1.214 23.214 -4 26 C-7.25 27.812 -7.25 27.812 -10 29 C-10.66 28.34 -11.32 27.68 -12 27 C-11.506 26.685 -11.013 26.371 -10.504 26.047 C-9.863 25.619 -9.223 25.191 -8.562 24.75 C-7.924 24.332 -7.286 23.915 -6.629 23.484 C-4.682 21.71 -4.536 20.519 -4 18 C-3.34 17.67 -2.68 17.34 -2 17 C-0.844 13.533 -0.672 10.459 -0.438 6.812 C-0.354 5.54 -0.27 4.268 -0.184 2.957 C-0.123 1.981 -0.062 1.005 0 0 Z " fill="#98DA94" transform="translate(222,167)"/>
<path d="M0 0 C0.33 0 0.66 0 1 0 C0.125 6.75 0.125 6.75 -1 9 C-1.66 9 -2.32 9 -3 9 C-3.245 9.859 -3.49 10.717 -3.742 11.602 C-5.111 15.3 -6.891 18.132 -9.125 21.375 C-9.849 22.435 -10.574 23.494 -11.32 24.586 C-11.875 25.383 -12.429 26.179 -13 27 C-13.99 26.67 -14.98 26.34 -16 26 C-12.605 20.154 -9.203 14.312 -5.75 8.5 C-5.521 8.113 -5.521 8.113 -4.359 6.156 C-3.004 4.007 -1.598 1.975 0 0 Z " fill="#67C2D2" transform="translate(136,88)"/>
<path d="M0 0 C-2.256 2.256 -3.971 2.885 -6.938 4 C-9.974 5.145 -12.277 6.185 -15 8 C-15.66 8 -16.32 8 -17 8 C-17.866 8.619 -18.733 9.238 -19.625 9.875 C-23.516 12.325 -26.532 13.076 -31 14 C-31.33 13.34 -31.66 12.68 -32 12 C-30.35 11.67 -28.7 11.34 -27 11 C-27 10.34 -27 9.68 -27 9 C-23.258 7.294 -19.505 5.613 -15.75 3.938 C-15.218 3.695 -15.218 3.695 -12.527 2.467 C-12.015 2.24 -12.015 2.24 -9.422 1.09 C-8.479 0.666 -7.537 0.241 -6.565 -0.196 C-3.839 -1.051 -2.632 -0.999 0 0 Z " fill="#5EAEB2" transform="translate(144,133)"/>
<path d="M0 0 C3.602 1.201 4.058 2.492 5.703 5.771 C6.007 6.404 6.312 7.036 6.625 7.688 C6.937 8.3 7.249 8.913 7.57 9.545 C9.442 13.349 10.522 16.791 11 21 C10.34 21.33 9.68 21.66 9 22 C7.491 18.9 5.994 15.795 4.5 12.688 C4.071 11.806 3.641 10.925 3.199 10.018 C2.793 9.17 2.387 8.322 1.969 7.449 C1.592 6.669 1.215 5.889 0.826 5.085 C0 3 0 3 0 0 Z " fill="#63B9B1" transform="translate(169,56)"/>
<path d="M0 0 C3.3 0.33 6.6 0.66 10 1 C10.33 2.32 10.66 3.64 11 5 C9.828 4.977 8.656 4.954 7.449 4.93 C-1.255 4.811 -9.487 4.9 -18 7 C-14.33 3.33 -10.226 2.739 -5.188 2.375 C-4.212 2.3 -3.236 2.225 -2.23 2.148 C-1.494 2.099 -0.758 2.05 0 2 C0 1.34 0 0.68 0 0 Z " fill="#549794" transform="translate(137,152)"/>
<path d="M0 0 C-5.124 4.099 -10.301 7.688 -17 8 C-17.66 7.34 -18.32 6.68 -19 6 C-16.779 4.795 -14.55 3.611 -12.312 2.438 C-11.687 2.095 -11.061 1.753 -10.416 1.4 C-6.549 -0.604 -4.184 -1.464 0 0 Z " fill="#7FD6B5" transform="translate(160,125)"/>
<path d="M0 0 C2.547 1.222 4.94 2.557 7.375 4 C10.474 5.794 13.554 6.991 17 8 C17 8.66 17 9.32 17 10 C18.98 10 20.96 10 23 10 C23 10.33 23 10.66 23 11 C16.748 11.408 9.26 10.771 4.309 6.562 C2.599 4.521 1.312 2.312 0 0 Z " fill="#6FB97D" transform="translate(182,187)"/>
<path d="M0 0 C0.99 0.33 1.98 0.66 3 1 C2.752 1.242 2.752 1.242 1.496 2.469 C-2.673 6.583 -6.653 10.784 -10.457 15.238 C-11.911 16.898 -13.421 18.459 -15 20 C-15.66 19.67 -16.32 19.34 -17 19 C-16.408 18.359 -15.817 17.719 -15.207 17.059 C-7.96 9.125 -7.96 9.125 -5.125 5 C-3 2 -3 2 0 0 Z " fill="#3E86A4" transform="translate(101,149)"/>
<path d="M0 0 C0.33 0.66 0.66 1.32 1 2 C0.258 4.137 0.258 4.137 -0.875 6.688 C-2.641 10.884 -3.607 14.478 -4 19 C-7 17 -7 17 -7.934 14.77 C-8.029 10.782 -6.353 8.894 -4.062 5.688 C-3.311 4.619 -2.559 3.55 -1.785 2.449 C-1.196 1.641 -0.607 0.833 0 0 Z " fill="#347084" transform="translate(150,70)"/>
<path d="M0 0 C1.32 0.66 2.64 1.32 4 2 C2.417 3.272 0.834 4.542 -0.75 5.812 C-1.632 6.52 -2.513 7.228 -3.422 7.957 C-4.273 8.631 -5.123 9.305 -6 10 C-6.727 10.581 -7.454 11.163 -8.203 11.762 C-10 13 -10 13 -12 13 C-10.45 9.116 -7.995 6.97 -4.875 4.25 C-3.965 3.451 -3.055 2.652 -2.117 1.828 C-1.768 1.526 -1.768 1.526 0 0 Z " fill="#4D8AA4" transform="translate(101,166)"/>
<path d="M0 0 C0.66 0.66 1.32 1.32 2 2 C1.423 2.915 0.845 3.83 0.25 4.773 C-0.5 5.974 -1.25 7.174 -2 8.375 C-2.382 8.978 -2.763 9.582 -3.156 10.203 C-6 14.773 -6 14.773 -6 17 C-7.65 17.66 -9.3 18.32 -11 19 C-11 18.01 -11 17.02 -11 16 C-10.34 16 -9.68 16 -9 16 C-8.773 15.361 -8.546 14.721 -8.312 14.062 C-6.514 9.867 -4.261 5.961 -2 2 C-1.34 2 -0.68 2 0 2 C0 1.34 0 0.68 0 0 Z " fill="#6AD9E4" transform="translate(149,67)"/>
<path d="M0 0 C9.572 0.042 16.185 3.79 24 9 C24 9.66 24 10.32 24 11 C23.447 10.72 22.894 10.441 22.324 10.152 C15.043 6.542 7.762 3.418 0 1 C0 0.67 0 0.34 0 0 Z " fill="#B8F7B5" transform="translate(178,119)"/>
<path d="M0 0 C0.66 0 1.32 0 2 0 C1.587 5.99 0.601 9.049 -3 14 C-3.75 16.375 -3.75 16.375 -4 18 C-4.66 18 -5.32 18 -6 18 C-5.554 11.31 -2.927 5.972 0 0 Z " fill="#6CC1D4" transform="translate(105,38)"/>
<path d="M0 0 C0.66 0.99 1.32 1.98 2 3 C0.169 8.493 -2.833 13.181 -6 18 C-7 16 -7 16 -6.258 13.504 C-6.071 13.019 -6.071 13.019 -5.125 10.562 C-4.756 9.594 -4.388 8.626 -4.008 7.629 C-3.842 7.195 -3.842 7.195 -3 5 C-2.67 4.01 -2.34 3.02 -2 2 C-1.34 2 -0.68 2 0 2 C0 1.34 0 0.68 0 0 Z " fill="#468AAF" transform="translate(57,138)"/>
<path d="M0 0 C2.52 2.259 3.873 4.418 5.25 7.5 C5.606 8.273 5.962 9.047 6.328 9.844 C7 12 7 12 6 15 C3.201 12.472 1.542 10.796 1 7 C0.34 7 -0.32 7 -1 7 C-0.67 4.69 -0.34 2.38 0 0 Z " fill="#5FA9A8" transform="translate(163,40)"/>
<path d="M0 0 C0 4.33 -2.115 5.914 -5 9 C-5.99 9.33 -6.98 9.66 -8 10 C-9.372 11.294 -10.712 12.623 -12 14 C-12.66 13.34 -13.32 12.68 -14 12 C-12.188 10 -12.188 10 -10 8 C-9.01 8 -8.02 8 -7 8 C-6.67 7.01 -6.34 6.02 -6 5 C-4.124 3.155 -2.073 1.632 0 0 Z " fill="#33749C" transform="translate(82,170)"/>
<path d="M0 0 C0.99 0 1.98 0 3 0 C3.701 1.577 4.386 3.162 5.062 4.75 C5.445 5.632 5.828 6.513 6.223 7.422 C7.046 10.153 6.977 11.369 6 14 C0 5.4 0 5.4 0 0 Z " fill="#6FC6B4" transform="translate(182,83)"/>
<path d="M0 0 C2.566 0.99 3.766 1.576 5.117 4.023 C5.367 4.799 5.617 5.575 5.875 6.375 C6.141 7.146 6.406 7.917 6.68 8.711 C7.067 11.479 6.459 12.668 5 15 C4.34 13.35 3.68 11.7 3 10 C2.67 10 2.34 10 2 10 C0.684 6.38 0 3.904 0 0 Z " fill="#A2EB9E" transform="translate(216,156)"/>
<path d="M0 0 C0.99 0.33 1.98 0.66 3 1 C1.422 2.464 -0.163 3.921 -1.75 5.375 C-2.632 6.187 -3.513 6.999 -4.422 7.836 C-6.598 9.663 -8.408 10.898 -11 12 C-11 10.68 -11 9.36 -11 8 C-8.341 5.945 -5.707 4.344 -2.688 2.875 C-1 2 -1 2 0 0 Z " fill="#376F90" transform="translate(86,179)"/>
<path d="M0 0 C0.66 0 1.32 0 2 0 C1.547 1.751 1.087 3.501 0.625 5.25 C0.37 6.225 0.115 7.199 -0.148 8.203 C-0.896 10.658 -1.771 12.756 -3 15 C-3.99 15 -4.98 15 -6 15 C-4.36 9.767 -2.61 4.848 0 0 Z " fill="#4D8DAC" transform="translate(64,122)"/>
<path d="M0 0 C5.058 4.552 7.318 11.351 8 18 C7.34 18 6.68 18 6 18 C4.994 15.565 3.995 13.127 3 10.688 C2.714 9.997 2.428 9.307 2.133 8.596 C0.911 5.585 0 3.281 0 0 Z " fill="#376F80" transform="translate(146,90)"/>
<path d="M0 0 C1.508 1.066 1.508 1.066 3 3 C3.18 6.215 3.18 6.215 2.875 9.938 C2.79 11.163 2.705 12.389 2.617 13.652 C1.998 17.009 1.288 18.533 -1 21 C-1.33 20.34 -1.66 19.68 -2 19 C-1.693 18.111 -1.386 17.221 -1.07 16.305 C0.095 12.706 0.202 9.893 0.125 6.125 C0.107 4.973 0.089 3.82 0.07 2.633 C0.047 1.764 0.024 0.895 0 0 Z " fill="#469499" transform="translate(160,35)"/>
<path d="M0 0 C0.346 0.005 0.346 0.005 2.1 0.027 C3.796 0.051 5.492 0.087 7.188 0.125 C7.188 0.455 7.188 0.785 7.188 1.125 C3.227 1.125 -0.732 1.125 -4.812 1.125 C-4.812 1.785 -4.812 2.445 -4.812 3.125 C-7.769 4.603 -10.555 4.185 -13.812 4.125 C-12.812 2.125 -12.812 2.125 -10.738 1.008 C-7.118 -0.085 -3.739 -0.093 0 0 Z " fill="#56B1A5" transform="translate(141.8125,150.875)"/>
<path d="M0 0 C3.419 1.709 4.202 5.675 5.625 9.062 C5.95 9.821 6.275 10.58 6.609 11.361 C7.412 13.238 8.207 15.119 9 17 C8.34 17.33 7.68 17.66 7 18 C3.559 12.839 0 6.297 0 0 Z " fill="#6DDBBA" transform="translate(189,98)"/>
<path d="M0 0 C0.99 0.33 1.98 0.66 3 1 C-1.625 5.875 -1.625 5.875 -5 7 C-5.66 6.34 -6.32 5.68 -7 5 C-5.906 4.133 -4.799 3.282 -3.688 2.438 C-3.073 1.962 -2.458 1.486 -1.824 0.996 C-1.222 0.667 -0.62 0.339 0 0 Z " fill="#8FD588" transform="translate(217,189)"/>
<path d="M0 0 C0.99 0 1.98 0 3 0 C3.289 0.969 3.577 1.939 3.875 2.938 C5 6 5 6 7 7 C7 8.98 7 10.96 7 13 C3.497 9.964 2.229 7.443 1 3 C0.67 2.01 0.34 1.02 0 0 Z " fill="#64AE8B" transform="translate(169,168)"/>
<path d="M0 0 C0.33 0 0.66 0 1 0 C0.125 6.75 0.125 6.75 -1 9 C-3.062 9.625 -3.062 9.625 -5 10 C-3.85 6.108 -2.708 3.061 0 0 Z " fill="#70CEDC" transform="translate(136,88)"/>
<path d="M0 0 C-2.349 2.349 -3.957 2.731 -7.125 3.625 C-8.035 3.885 -8.945 4.146 -9.883 4.414 C-10.581 4.607 -11.28 4.801 -12 5 C-11 2 -11 2 -7.688 0.25 C-3.024 -1.331 -3.024 -1.331 0 0 Z " fill="#69C3B3" transform="translate(144,133)"/>
<path d="M0 0 C0.33 0.66 0.66 1.32 1 2 C-0.215 4.383 -0.215 4.383 -1.938 7.125 C-2.503 8.035 -3.069 8.945 -3.652 9.883 C-4.097 10.581 -4.542 11.28 -5 12 C-5.66 10.68 -6.32 9.36 -7 8 C-6.34 7.67 -5.68 7.34 -5 7 C-3.875 4.938 -3.875 4.938 -3 3 C-2.34 3 -1.68 3 -1 3 C-0.67 2.01 -0.34 1.02 0 0 Z " fill="#5BA8BB" transform="translate(113,128)"/>
<path d="M0 0 C1.03 3.09 1.024 4.018 0.312 7.062 C0.164 7.755 0.016 8.447 -0.137 9.16 C-1.271 11.579 -2.568 12.044 -5 13 C-4.546 11.582 -4.086 10.166 -3.625 8.75 C-3.497 8.356 -3.497 8.356 -2.852 6.359 C-2.048 4.134 -1.103 2.091 0 0 Z " fill="#4994B3" transform="translate(71,108)"/>
<path d="M0 0 C1.65 0 3.3 0 5 0 C5.125 3.375 5.125 3.375 5 7 C4.34 7.66 3.68 8.32 3 9 C2.01 6.03 1.02 3.06 0 0 Z " fill="#538894" transform="translate(152,108)"/>
<path d="M0 0 C1.32 0.33 2.64 0.66 4 1 C2.68 3.64 1.36 6.28 0 9 C-2 5 -2 5 -1.125 2.25 C-0.754 1.508 -0.382 0.765 0 0 Z " fill="#6FC3D8" transform="translate(95,58)"/>
<path d="M0 0 C2.97 0 5.94 0 9 0 C8.67 1.32 8.34 2.64 8 4 C5.36 3.34 2.72 2.68 0 2 C0 1.34 0 0.68 0 0 Z " fill="#2B648C" transform="translate(47,189)"/>
<path d="M0 0 C0.99 0 1.98 0 3 0 C1.742 4.508 0.096 7.491 -3 11 C-3 9.02 -3 7.04 -3 5 C-2.34 5 -1.68 5 -1 5 C-0.67 3.35 -0.34 1.7 0 0 Z " fill="#63B3C5" transform="translate(119,115)"/>
<path d="M0 0 C1.062 1.812 1.062 1.812 2 4 C1.67 4.99 1.34 5.98 1 7 C0.34 7 -0.32 7 -1 7 C-1.33 8.32 -1.66 9.64 -2 11 C-2.66 10.67 -3.32 10.34 -4 10 C-3.524 8.52 -3.044 7.041 -2.562 5.562 C-2.296 4.739 -2.029 3.915 -1.754 3.066 C-1 1 -1 1 0 0 Z " fill="#5988A5" transform="translate(45,162)"/>
<path d="M0 0 C0.99 0.33 1.98 0.66 3 1 C0.03 3.97 -2.94 6.94 -6 10 C-6.66 9.67 -7.32 9.34 -8 9 C-5.36 6.03 -2.72 3.06 0 0 Z " fill="#347699" transform="translate(92,159)"/>
<path d="M0 0 C1.097 3.29 0.8 4.713 0 8 C-0.66 8 -1.32 8 -2 8 C-2.66 9.32 -3.32 10.64 -4 12 C-4.33 11.34 -4.66 10.68 -5 10 C-4.004 7.617 -4.004 7.617 -2.562 4.875 C-2.326 4.42 -2.326 4.42 -1.129 2.117 C-0.756 1.419 -0.384 0.72 0 0 Z " fill="#5EA2BB" transform="translate(77,96)"/>
<path d="M0 0 C-1.389 3.356 -2.917 5.073 -6 7 C-6.66 7 -7.32 7 -8 7 C-6.477 3.319 -4.32 0 0 0 Z " fill="#427E9B" transform="translate(97,172)"/>
<path d="M0 0 C1.626 0.114 3.251 0.242 4.875 0.375 C5.78 0.445 6.685 0.514 7.617 0.586 C10 1 10 1 12 3 C8.521 4.16 7.658 3.775 4.312 2.562 C3.504 2.275 2.696 1.988 1.863 1.691 C1.248 1.463 0.634 1.235 0 1 C0 0.67 0 0.34 0 0 Z " fill="#ACF2B2" transform="translate(178,119)"/>
<path d="M0 0 C4.283 2.514 6.645 4.123 8 9 C6.848 8.07 5.703 7.131 4.562 6.188 C4.243 5.926 4.243 5.926 2.629 4.605 C1 3 1 3 0 0 Z " fill="#4E9E81" transform="translate(164,158)"/>
<path d="M0 0 C0.99 0.33 1.98 0.66 3 1 C0.75 3.562 0.75 3.562 -2 6 C-4.312 5.812 -4.312 5.812 -6 5 C-5.196 4.546 -4.391 4.093 -3.562 3.625 C-1 2 -1 2 0 0 Z " fill="#3F7896" transform="translate(86,179)"/>
<path d="M0 0 C2 1.812 2 1.812 4 4 C4 4.99 4 5.98 4 7 C3.34 7 2.68 7 2 7 C1.67 7.66 1.34 8.32 1 9 C0.67 6.03 0.34 3.06 0 0 Z " fill="#519F7F" transform="translate(172,167)"/>
<path d="M0 0 C1.938 0.688 1.938 0.688 4 2 C4.75 4.625 4.75 4.625 5 7 C2 6 2 6 0 3 C0 2.01 0 1.02 0 0 Z " fill="#5BB1AF" transform="translate(165,48)"/>
<path d="M0 0 C-2.762 2.762 -5.207 2.579 -9 3 C-9 2.34 -9 1.68 -9 1 C-3.375 -1.125 -3.375 -1.125 0 0 Z " fill="#6EDDE5" transform="translate(127,24)"/>
</svg>
